<?xml version="1.0" encoding="UTF-8" standalone="no"?>
<svg
   version="1.0"
   width="512.000000pt"
   height="512.000000pt"
   viewBox="0 0 512.000000 512.000000"
   preserveAspectRatio="xMidYMid meet"
   id="svg14"
   sodipodi:docname="favicon.svg"
   inkscape:version="1.1 (c68e22c387, 2021-05-23)"
   xmlns:inkscape="http://www.inkscape.org/namespaces/inkscape"
   xmlns:sodipodi="http://sodipodi.sourceforge.net/DTD/sodipodi-0.dtd"
   xmlns="http://www.w3.org/2000/svg"
   xmlns:svg="http://www.w3.org/2000/svg">
  <defs
     id="defs18" />
  <sodipodi:namedview
     id="namedview16"
     pagecolor="#ffffff"
     bordercolor="#666666"
     borderopacity="1.0"
     inkscape:pageshadow="2"
     inkscape:pageopacity="0.0"
     inkscape:pagecheckerboard="0"
     inkscape:document-units="pt"
     showgrid="false"
     inkscape:zoom="0.77063591"
     inkscape:cx="0.64881482"
     inkscape:cy="366.58038"
     inkscape:window-width="1920"
     inkscape:window-height="991"
     inkscape:window-x="-9"
     inkscape:window-y="-9"
     inkscape:window-maximized="1"
     inkscape:current-layer="svg14" />
  <metadata
     id="metadata2">
Created by potrace 1.15, written by Peter Selinger 2001-2017
</metadata>
  <rect
     y="0.43641835"
     x="-0.16008627"
     height="528.9165"
     width="528.9165"
     id="rect834"
     style="fill:#00ffce;fill-opacity:0.992157;stroke:none;stroke-width:8.98392;stroke-dashoffset:679" />
  <path
     id="polygon10-5"
     style="fill:#000000;stroke-width:0.460852"
     d="m 191.15477,63.949524 v 0.02648 l 23.63757,27.194824 0.0503,0.03693 v 0.01441 l 6.84347,7.884925 21.41611,24.623247 9.07942,10.44301 v 0.009 l 4.80202,5.52122 9.76074,11.21262 22.62311,26.02468 27.75744,31.93207 -0.0748,0.16645 -32.16785,79.607 -12.97772,32.10309 h 34.6424 l 12.9542,-32.10309 21.26407,-52.59219 10.9128,-27.01481 2.5672,-6.37813 -12.11999,-13.95973 -10.2224,-11.76075 -1.28087,-1.47527 L 261.5813,96.052092 233.68169,63.948984 h -22.79425 z m 68.20629,0 27.88698,32.103126 h 41.53624 0.0144 l 46.91883,53.97473 37.33801,42.95114 0.0517,0.0647 0.0144,0.0144 -80.42789,199.09398 -10.74729,26.59087 23.62786,27.18583 10.74716,-26.58188 56.18725,-139.08134 24.25048,-60.01712 v 0.005 l 13.49347,-33.41186 -0.0144,-0.0144 -23.62313,-27.16694 -0.0144,-0.0144 -0.0503,-0.064 L 389.21232,116.6207 371.32637,96.053353 343.42585,63.950227 h -42.52711 z m -76.27115,19.968816 -10.76986,26.66469 -80.391028,198.96885 -0.09187,-0.10177 -13.493483,33.40735 0.08755,0.1061 23.549451,27.07513 0.0919,0.1061 0.0503,0.0638 37.33809,42.96104 17.88595,20.57283 27.90044,32.09768 h 42.52733 42.01143 l -27.90046,-32.09768 h -42.00157 -0.0144 l -46.91988,-53.98017 -37.33801,-42.95114 -0.0517,-0.0647 v -0.005 l 80.39634,-198.95086 10.76977,-26.67816 z m 39.03474,125.12163 -12.95433,32.10311 -21.26409,52.59217 -10.91278,27.01482 -2.56714,6.37811 92.66388,106.61463 27.89969,32.09771 h 42.52803 l -23.63767,-27.1949 -0.0503,-0.0638 -4.20345,-4.83898 -24.0606,-27.68359 -9.07942,-10.44302 -14.55837,-16.74285 -22.62311,-26.02467 -27.76198,-31.93212 0.0789,-0.16644 32.1634,-79.60699 12.98231,-32.10309 z" />
</svg>
